<?xml version="1.0" encoding="UTF-8" standalone="no"?>
<!DOCTYPE svg PUBLIC "-//W3C//DTD SVG 1.1//EN" "http://www.w3.org/Graphics/SVG/1.1/DTD/svg11.dtd">
<!-- Generated by Microsoft Visio, SVG Export budget_logo.svg Page-1 -->
<svg xmlns="http://www.w3.org/2000/svg" xmlns:xlink="http://www.w3.org/1999/xlink" xmlns:ev="http://www.w3.org/2001/xml-events"
		xmlns:v="http://schemas.microsoft.com/visio/2003/SVGExtensions/" width="1.36128in" height="1.71189in"
		viewBox="0 0 98.0118 123.256" xml:space="preserve" color-interpolation-filters="sRGB" class="st6">
	<v:documentProperties v:langID="1033" v:metric="true" v:viewMarkup="false"/>

	<style type="text/css">
	<![CDATA[
		.st1 {fill:none;stroke:#ffffff;stroke-width:2.25}
		.st2 {fill:#ffffff;stroke:none;stroke-width:0.25}
		.st3 {fill:#feffff;font-family:Open Sans;font-size:1.99999em}
		.st4 {fill:none;stroke:#ffffff;stroke-width:1.5}
		.st5 {fill:#1a2933;stroke:none;stroke-width:0.25}
		.st6 {fill:none;fill-rule:evenodd;font-size:12px;overflow:visible;stroke-linecap:square;stroke-miterlimit:3}
	]]>
	</style>

	<g v:mID="0" v:index="1" v:groupContext="foregroundPage">
		<title>Page-1</title>
		<v:pageProperties v:drawingScale="0.0393701" v:pageScale="0.0393701" v:drawingUnits="24" v:shadowOffsetX="8.50394"
				v:shadowOffsetY="-8.50394"/>
		<g id="shape1-1" v:mID="1" v:groupContext="shape" transform="translate(130.451,10.4547) rotate(90)">
			<title>Rectangle</title>
			<v:userDefs>
				<v:ud v:nameU="visVersion" v:val="VT0(15):26"/>
			</v:userDefs>
			<rect x="0" y="39.6338" width="110.551" height="83.6221" class="st1"/>
		</g>
		<g id="shape17-3" v:mID="17" v:groupContext="shape" transform="translate(-70.93,-59.4011) rotate(-45)">
			<title>L Shape</title>
			<v:userDefs>
				<v:ud v:nameU="visVersion" v:prompt="" v:val="VT0(15):26"/>
			</v:userDefs>
			<path d="M0 123.26 L14.37 123.26 L14.37 120.38 L2.87 120.38 L2.87 108.88 L0 108.88 L0 123.26 Z" class="st2"/>
		</g>
		<g id="shape18-5" v:mID="18" v:groupContext="shape" transform="translate(-54.6912,-59.4011) rotate(-45)">
			<title>L Shape.18</title>
			<v:userDefs>
				<v:ud v:nameU="visVersion" v:prompt="" v:val="VT0(15):26"/>
			</v:userDefs>
			<path d="M0 123.26 L14.37 123.26 L14.37 120.38 L2.87 120.38 L2.87 108.88 L0 108.88 L0 123.26 Z" class="st2"/>
		</g>
		<g id="shape19-7" v:mID="19" v:groupContext="shape" transform="translate(-38.3315,-59.4011) rotate(-45)">
			<title>L Shape.19</title>
			<v:userDefs>
				<v:ud v:nameU="visVersion" v:prompt="" v:val="VT0(15):26"/>
			</v:userDefs>
			<path d="M0 123.26 L14.37 123.26 L14.37 120.38 L2.87 120.38 L2.87 108.88 L0 108.88 L0 123.26 Z" class="st2"/>
		</g>
		<g id="shape20-9" v:mID="20" v:groupContext="shape" transform="translate(-22.0928,-59.4011) rotate(-45)">
			<title>L Shape.20</title>
			<v:userDefs>
				<v:ud v:nameU="visVersion" v:prompt="" v:val="VT0(15):26"/>
			</v:userDefs>
			<path d="M0 123.26 L14.37 123.26 L14.37 120.38 L2.87 120.38 L2.87 108.88 L0 108.88 L0 123.26 Z" class="st2"/>
		</g>
		<g id="shape21-11" v:mID="21" v:groupContext="shape" transform="translate(-5.73311,-59.4011) rotate(-45)">
			<title>L Shape.21</title>
			<v:userDefs>
				<v:ud v:nameU="visVersion" v:prompt="" v:val="VT0(15):26"/>
			</v:userDefs>
			<path d="M0 123.26 L14.37 123.26 L14.37 120.38 L2.87 120.38 L2.87 108.88 L0 108.88 L0 123.26 Z" class="st2"/>
		</g>
		<g id="shape22-13" v:mID="22" v:groupContext="shape" transform="translate(23.8484,-41.935)">
			<title>32-Point Star</title>
			<desc>$</desc>
			<v:userDefs>
				<v:ud v:nameU="CtrlYOffset" v:prompt="" v:val="VT0(0.47244094488189):24"/>
				<v:ud v:nameU="CtrlXOffset" v:prompt="" v:val="VT0(0.046531371664802):24"/>
				<v:ud v:nameU="CtrlAngle" v:prompt="" v:val="VT0(0.098174770424681):26"/>
				<v:ud v:nameU="ElbowDist" v:prompt="" v:val="VT0(0.47472688458723):24"/>
				<v:ud v:nameU="visVersion" v:prompt="" v:val="VT0(15):26"/>
				<v:ud v:nameU="CtrlYOffset" v:prompt="" v:val="VT0(0.27952754920369):1"/>
				<v:ud v:nameU="CtrlXOffset" v:prompt="" v:val="VT0(0.02753106059806):1"/>
				<v:ud v:nameU="ElbowDist" v:prompt="" v:val="VT0(0.28088006348168):1"/>
			</v:userDefs>
			<v:textBlock v:margins="rect(4,4,4,4)" v:tabSpace="42.5197"/>
			<v:textRect cx="25.1575" cy="98.0984" width="50.32" height="50.315"/>
			<path d="M25.16 72.94 L27.14 77.97 L30.07 73.42 L31.03 78.75 L34.78 74.86 L34.69 80.26 L39.13 77.18 L37.99 82.47 L42.95
						 80.31 L40.79 85.27 L46.08 84.12 L42.99 88.57 L48.4 88.47 L44.51 92.23 L49.83 93.19 L45.28 96.12 L50.31 98.1
						 L45.28 100.08 L49.83 103.01 L44.51 103.97 L48.4 107.73 L42.99 107.63 L46.08 112.08 L40.79 110.93 L42.95
						 115.89 L37.99 113.73 L39.13 119.02 L34.69 115.93 L34.78 121.34 L31.03 117.45 L30.07 122.77 L27.14 118.22
						 L25.16 123.26 L23.18 118.22 L20.25 122.77 L19.29 117.45 L15.53 121.34 L15.62 115.93 L11.18 119.02 L12.33
						 113.73 L7.37 115.89 L9.52 110.93 L4.24 112.08 L7.32 107.63 L1.91 107.73 L5.8 103.97 L0.48 103.01 L5.03 100.08
						 L0 98.1 L5.03 96.12 L0.48 93.19 L5.8 92.23 L1.91 88.47 L7.32 88.57 L4.24 84.12 L9.52 85.27 L7.37 80.31 L12.33
						 82.47 L11.18 77.18 L15.62 80.26 L15.53 74.86 L19.29 78.75 L20.25 73.42 L23.18 77.97 L25.16 72.94 Z"
					class="st1"/>
			<text x="18.3" y="105.3" class="st3" v:langID="1033"><v:paragraph v:horizAlign="1"/><v:tabList/>$</text>		</g>
		<g id="shape23-16" v:mID="23" v:groupContext="shape" transform="translate(21.3681,-33.4311)">
			<title>Center Drag Circle</title>
			<v:userDefs>
				<v:ud v:nameU="visVersion" v:val="VT0(15):26"/>
			</v:userDefs>
			<path d="M-2.89 123.26 A2.88526 2.88526 0 0 1 2.89 123.26 A2.88526 2.88526 0 1 1 -2.89 123.26 Z" class="st4"/>
		</g>
		<g id="shape25-18" v:mID="25" v:groupContext="shape" transform="translate(21.3681,-23.5098)">
			<title>Center Drag Circle.25</title>
			<v:userDefs>
				<v:ud v:nameU="visVersion" v:val="VT0(15):26"/>
			</v:userDefs>
			<path d="M-2.89 123.26 A2.88526 2.88526 0 0 1 2.89 123.26 A2.88526 2.88526 0 1 1 -2.89 123.26 Z" class="st4"/>
		</g>
		<g id="shape26-20" v:mID="26" v:groupContext="shape" transform="translate(21.3681,-13.5886)">
			<title>Center Drag Circle.26</title>
			<v:userDefs>
				<v:ud v:nameU="visVersion" v:val="VT0(15):26"/>
			</v:userDefs>
			<path d="M-2.89 123.26 A2.88526 2.88526 0 0 1 2.89 123.26 A2.88526 2.88526 0 1 1 -2.89 123.26 Z" class="st4"/>
		</g>
		<g id="shape27-22" v:mID="27" v:groupContext="shape" transform="translate(30.5807,-32.0138)">
			<title>Rectangle.27</title>
			<v:userDefs>
				<v:ud v:nameU="visVersion" v:val="VT0(15):26"/>
			</v:userDefs>
			<rect x="0" y="120.421" width="50.315" height="2.83463" class="st4"/>
		</g>
		<g id="shape28-24" v:mID="28" v:groupContext="shape" transform="translate(30.5807,-22.0925)">
			<title>Rectangle.28</title>
			<v:userDefs>
				<v:ud v:nameU="visVersion" v:val="VT0(15):26"/>
			</v:userDefs>
			<rect x="0" y="120.421" width="50.315" height="2.83463" class="st4"/>
		</g>
		<g id="shape29-26" v:mID="29" v:groupContext="shape" transform="translate(30.5807,-12.1712)">
			<title>Rectangle.29</title>
			<v:userDefs>
				<v:ud v:nameU="visVersion" v:val="VT0(15):26"/>
			</v:userDefs>
			<rect x="0" y="120.421" width="50.315" height="2.83463" class="st4"/>
		</g>
		<g id="shape10-28" v:mID="10" v:groupContext="shape" transform="translate(0.25,-105.998)">
			<title>Rectangle.10</title>
			<v:userDefs>
				<v:ud v:nameU="visVersion" v:val="VT0(15):26"/>
			</v:userDefs>
			<rect x="0" y="106.248" width="97.5118" height="17.0079" class="st5"/>
		</g>
	</g>
</svg>
